<svg width="48" height="48" viewBox="0 0 48 48" fill="none" xmlns="http://www.w3.org/2000/svg">
<g clip-path="url(#clip0_205_124)">
<path d="M48 0H0V48H48V0Z" fill="white"/>
<path d="M38.1 8L35.5309 36.7967L23.9828 40L12.4664 36.8012L9.90002 8H38.1Z" fill="#264DE4"/>
<path d="M33.3316 34.963L35.5271 10.3549H24.0001V37.5515L33.3316 34.963Z" fill="#2965F1"/>
<path d="M15.7834 21.0369L16.0999 24.5692H24.0001V21.0369H15.7834Z" fill="#EBEBEB"/>
<path d="M24 13.8873H23.9878H15.1476L15.4685 17.4197H24V13.8873Z" fill="#EBEBEB"/>
<path d="M24.0001 33.8858V30.2107L23.9846 30.2148L20.0528 29.1525L19.8015 26.3353H17.8909H16.2576L16.7522 31.8816L23.9838 33.8903L24.0001 33.8858Z" fill="#EBEBEB"/>
<path d="M28.3351 24.5691L27.9254 29.1503L23.9879 30.2137V33.8886L31.2253 31.8816L31.2784 31.2849L32.108 21.9854L32.1941 21.0368L32.8315 13.8873H23.9879V17.4197H28.9625L28.6413 21.0368H23.9879V24.5691H28.3351Z" fill="white"/>
</g>
<rect x="0.5" y="0.5" width="47" height="47" rx="9.5" stroke="black" stroke-opacity="0.1"/>
<defs>
<clipPath id="clip0_205_124">
<rect width="48" height="48" rx="10" fill="white"/>
</clipPath>
</defs>
</svg>
