<svg width="48" height="48" viewBox="0 0 48 48" fill="none" xmlns="http://www.w3.org/2000/svg">
<g clip-path="url(#clip0_205_202)">
<path d="M48 0H0V48H48V0Z" fill="#F7DF1E"/>
<path d="M30.3863 38.4566C31.4019 37.8669 32.6519 38.2612 33.5458 39.0228C34.3121 39.6757 35.2745 40.079 36.5731 40.079C38.4046 40.079 39.5746 39.164 39.5746 37.8998C39.5746 36.3848 38.3725 35.8482 36.3566 34.9669L35.2515 34.493C32.0619 33.1347 29.9429 31.4332 29.9429 27.836C29.9429 24.5225 32.4688 22 36.4163 22C38.5629 22 40.2486 22.5703 41.5739 23.9804C42.3141 24.7679 41.9905 25.9947 41.081 26.5784V26.5784C40.0945 27.2115 38.8602 26.7203 37.8261 26.1684C37.4182 25.9507 36.9585 25.8531 36.4163 25.8531C35.1216 25.8531 34.3011 26.674 34.3011 27.7465C34.3011 29.0719 35.1224 29.6085 37.0189 30.4294L38.1239 30.9025C41.8795 32.5123 44 34.1534 44 37.8431C44 41.8208 40.8738 44 36.6754 44C33.5344 44 31.244 42.8552 29.7602 41.1695C29.0029 40.3092 29.3952 39.0321 30.3863 38.4566V38.4566ZM14.6791 38.9401C15.7293 38.3046 16.9567 38.8167 17.9299 39.5647C18.3249 39.8682 18.8058 40.0514 19.4428 40.0514C20.895 40.0514 21.8112 39.4834 21.8112 37.2751V24.4623C21.8112 23.2417 22.8007 22.2522 24.0212 22.2522V22.2522C25.2418 22.2522 26.2313 23.2417 26.2313 24.4623V37.3348C26.2313 41.9096 23.5479 43.9918 19.631 43.9918C17.0316 43.9918 15.2358 43.0042 14.0524 41.6062C13.332 40.7551 13.7252 39.5174 14.6791 38.9401V38.9401Z" fill="black"/>
</g>
<rect x="0.5" y="0.5" width="47" height="47" rx="9.5" stroke="black" stroke-opacity="0.1"/>
<defs>
<clipPath id="clip0_205_202">
<rect width="48" height="48" rx="10" fill="white"/>
</clipPath>
</defs>
</svg>
