<svg width="48" height="48" viewBox="0 0 48 48" fill="none" xmlns="http://www.w3.org/2000/svg">
<rect width="48" height="48" rx="16" fill="#1E2235"/>
<path d="M33.6288 25.4971C32.6985 25.502 31.8899 25.726 31.2129 26.0572C30.9645 25.5653 30.7161 25.1269 30.6722 24.8054C30.6235 24.4304 30.5651 24.2015 30.6235 23.7534C30.682 23.3052 30.945 22.6672 30.9401 22.6185C30.9352 22.5698 30.8817 22.3408 30.3459 22.336C29.8101 22.3311 29.3474 22.4383 29.2938 22.5795C29.2402 22.7208 29.1379 23.0422 29.0697 23.3734C28.9772 23.8605 27.9982 25.5994 27.438 26.5102C27.2578 26.1546 27.1019 25.8429 27.0678 25.5945C27.0191 25.2195 26.9607 24.9905 27.0191 24.5424C27.0776 24.0943 27.3406 23.4562 27.3357 23.4075C27.3309 23.3588 27.2773 23.1299 26.7415 23.125C26.2057 23.1202 25.743 23.2273 25.6894 23.3686C25.6358 23.5098 25.5774 23.841 25.4654 24.1625C25.3533 24.484 24.0528 27.387 23.7119 28.1371C23.5365 28.5218 23.3855 28.8287 23.2784 29.0381C23.2784 29.0381 23.2735 29.0528 23.2589 29.0771C23.1664 29.2573 23.1128 29.3547 23.1128 29.3547C23.1128 29.3547 23.1128 29.3547 23.1128 29.3596C23.0397 29.4911 22.9618 29.6129 22.9228 29.6129C22.8936 29.6129 22.84 29.2622 22.9326 28.7849C23.1274 27.7766 23.5901 26.2082 23.5852 26.1547C23.5852 26.1254 23.6729 25.8527 23.2833 25.7114C22.9033 25.5702 22.767 25.804 22.7329 25.804C22.6988 25.804 22.6744 25.8868 22.6744 25.8868C22.6744 25.8868 23.0982 24.1235 21.8659 24.1235C21.0963 24.1235 20.0345 24.9662 19.5084 25.726C19.1772 25.9062 18.4709 26.291 17.716 26.705C17.4286 26.8658 17.1315 27.0265 16.8538 27.1775C16.8344 27.158 16.8149 27.1337 16.7954 27.1142C15.3049 25.5214 12.5481 24.3963 12.665 22.258C12.7088 21.4787 12.9767 19.433 17.9595 16.9489C22.0607 14.9275 25.3241 15.4877 25.8891 16.7297C26.6977 18.5027 24.1405 21.7953 19.9029 22.2726C18.2858 22.4529 17.4383 21.8294 17.224 21.5956C17 21.3521 16.9659 21.3375 16.8831 21.3862C16.7467 21.4592 16.8344 21.6784 16.8831 21.8051C17.0097 22.1363 17.5309 22.7208 18.4125 23.0081C19.1918 23.2614 21.0865 23.4027 23.3807 22.5162C25.9476 21.5225 27.9543 18.7608 27.365 16.4472C26.7756 14.0995 22.879 13.325 19.1918 14.6353C17 15.4146 14.623 16.642 12.9134 18.2396C10.8823 20.1392 10.5608 21.7904 10.6923 22.4821C11.1648 24.937 14.55 26.5346 15.904 27.7182C15.8359 27.7571 15.7725 27.7912 15.719 27.8205C15.0419 28.1565 12.4604 29.5057 11.8175 30.9329C11.0869 32.55 11.9344 33.7092 12.4945 33.8651C14.2334 34.3473 16.0209 33.4803 16.9805 32.0483C17.94 30.6163 17.8231 28.7556 17.3799 27.9033C17.375 27.8935 17.3701 27.8838 17.3604 27.874C17.5357 27.7717 17.716 27.6646 17.8913 27.5623C18.2371 27.3577 18.5781 27.1678 18.8703 27.0119C18.7047 27.4649 18.583 28.0055 18.5245 28.7849C18.4515 29.7006 18.8265 30.889 19.3185 31.3566C19.5376 31.5612 19.7958 31.5661 19.9614 31.5661C20.5361 31.5661 20.7943 31.0887 21.0817 30.5237C21.4324 29.8321 21.749 29.0284 21.749 29.0284C21.749 29.0284 21.3544 31.2008 22.426 31.2008C22.8157 31.2008 23.2102 30.6942 23.3855 30.4361C23.3855 30.4409 23.3855 30.4409 23.3855 30.4409C23.3855 30.4409 23.3953 30.4263 23.4148 30.3922C23.4537 30.3289 23.4781 30.2899 23.4781 30.2899C23.4781 30.2899 23.4781 30.2851 23.4781 30.2802C23.634 30.0074 23.9846 29.3888 24.5058 28.3611C25.178 27.0363 25.8258 25.3802 25.8258 25.3802C25.8258 25.3802 25.8842 25.7845 26.084 26.4566C26.2008 26.8512 26.4444 27.2847 26.6392 27.7036C26.4834 27.9227 26.3859 28.0445 26.3859 28.0445C26.3859 28.0445 26.3859 28.0445 26.3908 28.0494C26.2642 28.215 26.1278 28.3952 25.9768 28.5706C25.4459 29.2038 24.8127 29.9295 24.725 30.1389C24.6227 30.3873 24.6471 30.5676 24.8419 30.7137C24.9832 30.8208 25.2364 30.8355 25.4946 30.8208C25.9719 30.7868 26.308 30.6699 26.4736 30.5968C26.7318 30.5042 27.0337 30.363 27.3163 30.1536C27.8374 29.7688 28.154 29.2184 28.1248 28.4926C28.1102 28.0932 27.9787 27.6938 27.8179 27.3188C27.8667 27.2506 27.9105 27.1824 27.9592 27.1142C28.7824 25.9111 29.4204 24.5911 29.4204 24.5911C29.4204 24.5911 29.4789 24.9954 29.6786 25.6676C29.776 26.0085 29.9757 26.3787 30.151 26.7391C29.3766 27.3675 28.8993 28.0981 28.7288 28.5754C28.4219 29.4619 28.6606 29.8613 29.1136 29.9538C29.3181 29.9977 29.6104 29.9003 29.8247 29.8077C30.0975 29.7201 30.4189 29.5691 30.7258 29.345C31.247 28.9602 31.7487 28.4244 31.7194 27.6987C31.7048 27.3675 31.6171 27.0411 31.4954 26.7245C32.1529 26.4518 33.0004 26.3008 34.0818 26.4274C36.4002 26.7002 36.8581 28.1468 36.7704 28.7556C36.6827 29.3645 36.1957 29.6957 36.0349 29.798C35.8742 29.9003 35.8206 29.9344 35.8352 30.0074C35.8547 30.1146 35.9326 30.1097 36.069 30.0902C36.259 30.0561 37.2867 29.5983 37.3306 28.478C37.4036 27.046 36.0398 25.4825 33.6288 25.4971ZM15.7433 31.5271C14.9737 32.3649 13.9022 32.6815 13.4394 32.4136C12.9426 32.1262 13.1374 30.889 14.0824 30.0026C14.6571 29.4619 15.3975 28.9602 15.8894 28.6534C16.0015 28.5852 16.1671 28.4877 16.3668 28.366C16.4009 28.3465 16.4203 28.3368 16.4203 28.3368C16.4593 28.3124 16.4983 28.288 16.5372 28.2637C16.8831 29.5301 16.5519 30.6455 15.7433 31.5271ZM21.3447 27.7182C21.0768 28.3708 20.5167 30.0415 20.1757 29.949C19.8835 29.871 19.7032 28.6046 20.1173 27.3529C20.3267 26.7245 20.7699 25.9744 21.0281 25.6822C21.447 25.2146 21.9097 25.0587 22.0217 25.2487C22.163 25.4971 21.5103 27.309 21.3447 27.7182ZM25.9671 29.9295C25.855 29.9879 25.7479 30.0269 25.6992 29.9977C25.6651 29.9782 25.7479 29.9003 25.7479 29.9003C25.7479 29.9003 26.3275 29.2768 26.5564 28.9943C26.6879 28.8287 26.8438 28.6339 27.0094 28.4147C27.0094 28.4342 27.0094 28.4585 27.0094 28.478C27.0094 29.2232 26.2885 29.7249 25.9671 29.9295ZM29.5325 29.1161C29.4496 29.0576 29.4643 28.8628 29.7419 28.254C29.8491 28.0153 30.1023 27.6159 30.5358 27.2311C30.5845 27.387 30.6186 27.5379 30.6138 27.6792C30.6089 28.6193 29.9367 28.97 29.5325 29.1161Z" fill="#F472B6"/>
</svg>
